<svg width="21" height="20" viewBox="0 0 21 20" fill="none" xmlns="http://www.w3.org/2000/svg">
<path d="M16.0972 9.16667H4.23607C3.30025 9.16667 2.54163 9.91286 2.54163 10.8333V16.6667C2.54163 17.5871 3.30025 18.3333 4.23607 18.3333H16.0972C17.033 18.3333 17.7916 17.5871 17.7916 16.6667V10.8333C17.7916 9.91286 17.033 9.16667 16.0972 9.16667Z" stroke="white" stroke-linecap="round" stroke-linejoin="round"/>
<path d="M5.93054 9.16667V5.83333C5.93054 4.72826 6.37685 3.66846 7.17127 2.88706C7.96569 2.10565 9.04317 1.66667 10.1667 1.66667C11.2901 1.66667 12.3676 2.10565 13.162 2.88706C13.9565 3.66846 14.4028 4.72826 14.4028 5.83333V9.16667" stroke="white" stroke-linecap="round" stroke-linejoin="round"/>
</svg>
