<svg width="50" height="50" viewBox="0 0 50 50" fill="none" xmlns="http://www.w3.org/2000/svg">
<g clip-path="url(#clip0_4_38)">
<path d="M48.6111 50V43.0556C48.6111 40.8454 47.7331 38.7258 46.1703 37.163C44.6075 35.6002 42.4879 34.7222 40.2778 34.7222H18.0556C15.8454 34.7222 13.7258 35.6002 12.163 37.163C10.6002 38.7258 9.72223 40.8454 9.72223 43.0556V50H48.6111Z" fill="#77B255"/>
<path d="M23.1111 34.8695C23.1111 36.1111 26.3889 37.6375 29.1667 37.6375C31.9445 37.6375 35.2209 36.1111 35.2209 34.8708V29.5695H23.1097L23.1111 34.8695Z" fill="#F3D2A2"/>
<path d="M23.1 31.907C24.7889 33.8153 26.8834 34.332 29.1611 34.332C31.4389 34.332 33.5306 33.8139 35.2209 31.907V27.0583H23.0986L23.1 31.907Z" fill="#E2C196"/>
<path d="M20.0611 17.9667C20.0611 19.9778 19.0417 21.6083 17.7848 21.6083C16.5278 21.6083 15.5084 19.9778 15.5084 17.9667C15.5084 15.9556 16.5278 14.3236 17.7848 14.3236C19.0417 14.3222 20.0611 15.9542 20.0611 17.9667ZM42.8236 17.9667C42.8236 19.9778 41.8056 21.6083 40.5472 21.6083C39.2903 21.6083 38.2709 19.9778 38.2709 17.9667C38.2709 15.9556 39.2889 14.3236 40.5472 14.3236C41.8056 14.3222 42.8236 15.9542 42.8236 17.9667Z" fill="#F3D2A2"/>
<path d="M17.3292 19.3889C17.3292 11.6264 22.6292 5.33197 29.1667 5.33197C35.7042 5.33197 41.0028 11.6264 41.0028 19.3889C41.0028 27.1514 35.7042 33.4459 29.1667 33.4459C22.6306 33.4445 17.3292 27.1514 17.3292 19.3889Z" fill="#F3D2A2"/>
<path d="M29.1667 28.8917C25.3417 28.8917 24.1667 27.9125 23.9708 27.7139C23.7959 27.5478 23.6941 27.3189 23.6878 27.0777C23.6816 26.8366 23.7714 26.6028 23.9375 26.4278C24.1036 26.2528 24.3325 26.151 24.5737 26.1448C24.8148 26.1385 25.0486 26.2283 25.2236 26.3945C25.2958 26.4458 26.225 27.0708 29.1667 27.0708C32.2222 27.0708 33.1056 26.3972 33.1139 26.3903C33.198 26.3074 33.2978 26.2422 33.4074 26.1983C33.517 26.1544 33.6342 26.1328 33.7523 26.1348C33.8703 26.1367 33.9868 26.1621 34.0949 26.2096C34.203 26.257 34.3006 26.3255 34.3819 26.4111C34.5499 26.5876 34.6419 26.8229 34.6383 27.0665C34.6346 27.3101 34.5356 27.5425 34.3625 27.7139C34.1667 27.9125 32.9917 28.8917 29.1667 28.8917Z" fill="#C1694F"/>
<path d="M29.1667 0C37.0111 0 41.9139 6.45556 41.9139 11.2792C41.9139 16.1028 40.9333 18.0333 39.9528 16.1028L37.9917 12.2444C37.9917 12.2444 32.1097 12.2444 30.1486 10.3139C30.1486 10.3139 33.0903 16.1028 27.207 10.3139C27.207 10.3139 28.1875 14.1736 22.3042 9.35C22.3042 9.35 19.3625 11.2792 18.3819 16.1028C18.1097 17.4417 16.4208 16.1028 16.4208 11.2792C16.4194 6.45556 20.3417 0 29.1667 0Z" fill="#FFE51E"/>
<path d="M23.6111 19.4444C22.8472 19.4444 22.2222 18.8194 22.2222 18.0555V16.6667C22.2222 15.9028 22.8472 15.2778 23.6111 15.2778C24.375 15.2778 25 15.9028 25 16.6667V18.0555C25 18.8194 24.375 19.4444 23.6111 19.4444ZM34.7222 19.4444C33.9583 19.4444 33.3333 18.8194 33.3333 18.0555V16.6667C33.3333 15.9028 33.9583 15.2778 34.7222 15.2778C35.4861 15.2778 36.1111 15.9028 36.1111 16.6667V18.0555C36.1111 18.8194 35.4861 19.4444 34.7222 19.4444Z" fill="#662113"/>
<path d="M30.2083 23.2639H28.125C27.5514 23.2639 27.0833 22.7958 27.0833 22.2222C27.0833 21.6486 27.5514 21.1805 28.125 21.1805H30.2083C30.7819 21.1805 31.25 21.6486 31.25 22.2222C31.25 22.7958 30.7819 23.2639 30.2083 23.2639Z" fill="#C1694F"/>
<path d="M45.8334 48.6111C45.8334 48.9795 45.687 49.3327 45.4266 49.5932C45.1661 49.8537 44.8128 50 44.4445 50H30.5556C30.1872 50 29.8339 49.8537 29.5735 49.5932C29.313 49.3327 29.1667 48.9795 29.1667 48.6111C29.1667 48.2428 29.313 47.8895 29.5735 47.629C29.8339 47.3686 30.1872 47.2222 30.5556 47.2222H44.4445C44.8128 47.2222 45.1661 47.3686 45.4266 47.629C45.687 47.8895 45.8334 48.2428 45.8334 48.6111Z" fill="#E1E8ED"/>
<path d="M28.1111 30.5555H5.22084C3.10417 30.5555 0.390281 31.6264 1.77917 35.4597L6.04584 47.2305C6.04723 47.2305 6.59723 50 9.72223 50H37.5L31.9444 34.3889C31.3361 32.5528 30.2292 30.5555 28.1111 30.5555Z" fill="#E1E8ED"/>
<path d="M26.7222 30.5555H3.83192C1.71525 30.5555 -0.998635 31.6264 0.390254 35.4597L4.65692 47.2305C4.65831 47.2305 5.20831 50 8.33331 50H36.1111L30.5555 34.3889C29.9472 32.5528 28.8403 30.5555 26.7222 30.5555Z" fill="#99AAB5"/>
<path d="M19.4708 40.6709C20.1986 42.8542 19.6083 45.0181 18.1528 45.5028C16.6972 45.9875 14.9278 44.6125 14.2 42.4292C13.4722 40.2459 14.0625 38.082 15.5181 37.5972C16.9736 37.1125 18.7444 38.4875 19.4708 40.6709ZM26.3889 34.375H4.16667C3.8904 34.375 3.62545 34.2653 3.4301 34.0699C3.23475 33.8746 3.125 33.6096 3.125 33.3334C3.125 33.0571 3.23475 32.7921 3.4301 32.5968C3.62545 32.4014 3.8904 32.2917 4.16667 32.2917H26.3889C26.6652 32.2917 26.9301 32.4014 27.1255 32.5968C27.3208 32.7921 27.4306 33.0571 27.4306 33.3334C27.4306 33.6096 27.3208 33.8746 27.1255 34.0699C26.9301 34.2653 26.6652 34.375 26.3889 34.375Z" fill="#E1E8ED"/>
</g>
<defs>
<clipPath id="clip0_4_38">
<rect width="50" height="50" fill="white"/>
</clipPath>
</defs>
</svg>
