<svg width="50" height="50" viewBox="0 0 50 50" fill="none" xmlns="http://www.w3.org/2000/svg">
<path d="M34.375 11.4583C35.4801 11.4583 36.5399 11.0193 37.3213 10.2379C38.1027 9.45654 38.5417 8.39674 38.5417 7.29167C38.5417 6.1866 38.1027 5.12679 37.3213 4.34539C36.5399 3.56399 35.4801 3.125 34.375 3.125C33.2699 3.125 32.2101 3.56399 31.4287 4.34539C30.6473 5.12679 30.2083 6.1866 30.2083 7.29167C30.2083 8.39674 30.6473 9.45654 31.4287 10.2379C32.2101 11.0193 33.2699 11.4583 34.375 11.4583ZM26.875 40.4167L28.9583 31.25L33.3333 35.4167V47.9167H37.5V32.2917L33.125 28.125L34.375 21.875C35.8025 23.5107 37.5637 24.8218 39.5401 25.7202C41.5165 26.6185 43.6623 27.0833 45.8333 27.0833V22.9167C42.1667 22.9792 38.75 21.0625 36.875 17.9167L34.7917 14.5833C34.0417 13.3333 32.7083 12.5 31.25 12.5C30.625 12.5 30.2083 12.7083 29.5833 12.7083L18.75 17.2917V27.0833H22.9167V20L26.6667 18.5417L23.3333 35.4167L13.125 33.3333L12.2917 37.5L26.875 40.4167ZM8.33334 18.75C7.7808 18.75 7.2509 18.5305 6.8602 18.1398C6.4695 17.7491 6.25001 17.2192 6.25001 16.6667C6.25001 16.1141 6.4695 15.5842 6.8602 15.1935C7.2509 14.8028 7.7808 14.5833 8.33334 14.5833H14.5833V18.75H8.33334ZM10.4167 10.4167C9.86414 10.4167 9.33423 10.1972 8.94353 9.80647C8.55283 9.41577 8.33334 8.88587 8.33334 8.33333C8.33334 7.7808 8.55283 7.2509 8.94353 6.86019C9.33423 6.46949 9.86414 6.25 10.4167 6.25H20.8333V10.4167H10.4167ZM6.25001 27.0833C5.69747 27.0833 5.16757 26.8638 4.77687 26.4731C4.38617 26.0824 4.16667 25.5525 4.16667 25C4.16667 24.4475 4.38617 23.9176 4.77687 23.5269C5.16757 23.1362 5.69747 22.9167 6.25001 22.9167H14.5833V27.0833H6.25001Z" fill="black"/>
</svg>
