<svg width="50" height="50" viewBox="0 0 50 50" fill="none" xmlns="http://www.w3.org/2000/svg">
<path d="M25 8.33337C27.2101 8.33337 29.3297 9.21135 30.8926 10.7742C32.4554 12.337 33.3333 14.4566 33.3333 16.6667C33.3333 18.8768 32.4554 20.9965 30.8926 22.5593C29.3297 24.1221 27.2101 25 25 25C22.7899 25 20.6702 24.1221 19.1074 22.5593C17.5446 20.9965 16.6667 18.8768 16.6667 16.6667C16.6667 14.4566 17.5446 12.337 19.1074 10.7742C20.6702 9.21135 22.7899 8.33337 25 8.33337ZM25 29.1667C34.2083 29.1667 41.6667 32.8959 41.6667 37.5V41.6667H8.33333V37.5C8.33333 32.8959 15.7917 29.1667 25 29.1667Z" fill="black"/>
</svg>
