<svg width="51" height="50" viewBox="0 0 51 50" fill="none" xmlns="http://www.w3.org/2000/svg">
<path d="M7.50125 22.7937C7.871 19.7062 8.8825 17.4667 10.6611 15.0729H11.9999C10.0953 17.2529 8.90006 19.9419 8.568 22.7937H7.50125ZM16.8258 10.6625H14.8134C17.3265 8.94471 20.2163 7.83001 23.2496 7.40833V8.45625C20.9899 8.80473 18.8133 9.55225 16.8258 10.6625ZM42.432 22.7937C42.0283 19.6625 41.2632 17.4125 39.3507 15.0729H40.6895C42.4639 17.4688 43.129 19.7062 43.5009 22.7937H42.432ZM34.1743 10.6625H36.1866C33.6788 8.92473 30.7886 7.79063 27.7504 7.35208V8.4C29.9434 8.66458 32.3191 9.65833 34.1743 10.6625ZM14.8112 39.3375C17.3193 41.0745 20.2094 42.2079 23.2475 42.6458V41.6C20.984 41.234 18.8072 40.4674 16.8236 39.3375H14.8112ZM10.659 34.9271H11.9977C10.0766 32.7042 8.86463 29.9764 8.51275 27.0833H7.43325C7.803 30.1708 8.88463 32.5312 10.6611 34.925M34.1743 39.3354C32.317 40.3396 29.9455 41.3208 27.7504 41.5979V42.6458C30.7424 42.3021 33.8257 40.9354 36.1866 39.3354H34.1743ZM38.998 34.925H40.3368C42.103 32.6898 43.1987 30.0161 43.5009 27.2042H42.432C42.0999 30.056 40.9047 32.745 39.0001 34.925M13.1261 11.7646H15.3786V13.9708H13.1261V11.7646ZM35.6278 11.7646H37.876V13.9708H35.6278V11.7646ZM13.124 36.0292H15.3765V38.2354H13.124V36.0292ZM6.375 23.8979H8.62538V26.1021H6.375V23.8979ZM42.3746 23.8979H44.625V26.1021H42.3746V23.8979ZM24.3759 43.75V41.5437H26.6241V43.75H24.3759ZM24.3759 8.45625V6.25H26.6241V8.45625H24.3759ZM35.6256 36.0292H37.8739V38.2354H35.6256V36.0292ZM26.7601 18.3833L28.8745 19.0875L24.242 31.6187L22.1255 30.9104L26.7601 18.3833ZM19.6137 20.5875L14.2502 25L19.6159 29.4125L20.9993 27.5375L17.7947 25L20.9993 22.4625L19.6137 20.5875ZM31.382 20.5875L36.7498 25L31.3841 29.4125L30.0007 27.5375L33.2053 25L30.0007 22.4625L31.382 20.5875Z" fill="black"/>
</svg>
